<svg xmlns="http://www.w3.org/2000/svg" xml:space="preserve" width="50" height="50"><path fill="#C93A3A" d="M11.3 32.8c-1.9 1.4-6.2 5.2-2.5 9.4s4.8.7 8.4-2.8c3.6-3.5-2.3-7.4-2.3-7.4"/><path fill="#F44747" d="M14.2 36.5c-3.6 3.5-4.8 7-8.4 2.8-2.9-3.4-.1-7.2 2.1-9.3.6-.5 1.1-1 1.5-1.3l2.6.4s5.8 3.9 2.2 7.4zm9.4 3.6c-.2.3-.5.8-.9 1.4-2 2.6-6.5 6.9-9.8 4.4-4-3-1-4.4 1.6-8 .2-.3.4-.5.6-.7 2.6-2.2 5.9 2.1 5.9 2.1l2.6.8z"/><path d="M14.2 36.5c-3.6 3.5-4.8 7-8.4 2.8-2.9-3.4-.1-7.2 2.1-9.3.6-.5 1.1-1 1.5-1.3l2.6.4s5.8 3.9 2.2 7.4zm9.4 3.6c-.2.3-.5.8-.9 1.4-2 2.6-6.5 6.9-9.8 4.4-4-3-1-4.4 1.6-8 .2-.3.4-.5.6-.7 2.6-2.2 5.9 2.1 5.9 2.1l2.6.8z" opacity=".1"/><path fill="#C93A3A" d="M14.2 36.5c-2.4-1.9-4.7-4.4-6.3-6.5.6-.5 1.1-1 1.5-1.3l2.6.4s5.8 3.9 2.2 7.4zm9.4 3.6c-.2.3-.5.8-.9 1.4-1.2-.3-2.3-.7-3.2-1.1-1.2-.5-2.7-1.6-4.4-3 2.6-2.2 5.9 2.1 5.9 2.1l2.6.6z"/><path fill="#F44747" d="M11.7 12C8.9 14.8 6.4 21.4 9 25.6s9.2 10.2 12.4 11.7 8.6 3.1 12.9-1.2c4.3-4.2 11.8-12.2 9.4-20.9-2.5-8.6-11.2-12.9-15.1-12-7 1.6-10.8 7.4-12.3 10.7"/><path fill="#F44747" d="M10.7 14C7.9 16.8 5.4 23.4 8 27.6s9.2 10.2 12.4 11.7 8.6 3.1 12.9-1.2c4.3-4.2 11.8-12.2 9.4-20.9-2.5-8.6-11.2-12.9-15.1-12-7 1.6-10.8 7.4-12.3 10.7"/><path fill="#F44747" d="M11.7 12C8.9 14.8 6.4 21.4 9 25.6s9.2 10.2 12.4 11.7 8.6 3.1 12.9-1.2c4.3-4.2 11.8-12.2 9.4-20.9-2.5-8.6-11.2-12.9-15.1-12-7 1.6-10.8 7.4-12.3 10.7"/><path fill="#FFF" d="M41.8 15.8C39.5 8.7 32.9 5.1 29.7 5.1c-.3 0-.5 0-.7.1-2 .5-3.7 1.3-5.2 2.3-2.6 1.8-.3 4.8 4.2 2.5 2.4-1.2 8.1 2.8 10.2 7.4s4.6 1.5 3.6-1.6z" opacity=".2"/><path fill="#B73030" d="M41.8 27c-2 4.6-5.8 8.6-8.5 11.2-4.3 4.3-9.6 2.7-12.9 1.2S10.6 31.8 8 27.6c-2.1-3.3-.9-8.2 1-11.4-1.3 3-1.7 6.8 0 9.4 2.6 4.2 9.2 10.2 12.4 11.7s8.6 3.1 12.9-1.2c2.2-2.2 5.3-5.4 7.5-9.1z" opacity=".8"/><path fill="#B73030" d="M12.5 13c2.6-1.4 6.2-.9 8 2.5 1.8 3.4 4.2 7.6.1 9.7s-7.3-.4-7.9-1.8-1.5-6.2-.2-10.4z" opacity=".8"/><path fill="#B73030" d="M25 21.5c3 3.2 9 4.3 12.2 2.2s2.4 1.3-.5 2.2-9.4 2-14.2-2.2 1.3-2.8 1.3-2.8l1.2.6z" opacity=".8"/><path fill="#F44747" d="M11.7 12c2.2-2.4 6.2-3.1 9.3 0 3.1 3.1 7 6.8 3.2 10.4s-7.9 2.1-8.9.7c-1.1-1.3-3.6-6.1-3.6-11.1z"/><path fill="#FFF" d="M24.2 22.4c-2.1 2-4.3 2.4-6 2.1 1.3-.2 2.7-.8 4-2.1 3.8-3.6-.1-7.3-3.2-10.4-1.1-1.1-2.4-1.8-3.7-2 1.9-.3 3.9.2 5.7 2 3.1 3.1 7 6.8 3.2 10.4z" opacity=".2"/><path fill="#EFDCDA" d="M13.3 43.7c-.3 0-.5-.1-.7-.3l-4.9-4.9c-.4-.4-.4-1 0-1.4s1-.4 1.4 0L14 42c.4.4.4 1 0 1.4-.2.2-.4.3-.7.3zm3-3c-.3 0-.5-.1-.7-.3l-4.9-4.9c-.4-.4-.4-1 0-1.4s1-.4 1.4 0L17 39c.4.4.4 1 0 1.4-.2.2-.4.3-.7.3z"/><path fill="#B73030" d="M23.6 40.1c-.2.3-.5.8-.9 1.4-2 2.6-6.5 6.9-9.8 4.4-.1-.1-.3-.2-.4-.3 3 .5 6.4-2.9 8.2-5.1.3-.4.5-.7.7-1l2.2.6z"/></svg>